<?xml version="1.0" encoding="UTF-8"?>
<svg id="_Слой_1" data-name="Слой 1" xmlns="http://www.w3.org/2000/svg" viewBox="0 0 400 2500">
  <defs>
    <style>
      .cls-1 {
        letter-spacing: 0em;
      }

      .cls-2 {
        fill: none;
        stroke: #fff;
        stroke-miterlimit: 10;
      }

      .cls-3 {
        font-size: 36px;
      }

      .cls-3, .cls-4 {
        fill: #fff;
        font-family: TimesNewRomanPSMT, 'Times New Roman';
      }

      .cls-5 {
        letter-spacing: -.04em;
      }

      .cls-6 {
        letter-spacing: -.05em;
      }

      .cls-4 {
        font-size: 24px;
      }

      .cls-7 {
        letter-spacing: -.06em;
      }
    </style>
  </defs>
  <g>
    <rect class="cls-2" x="100" y="100" width="200" height="100" rx="46.91" ry="46.91"/>
    <text class="cls-3" transform="translate(144.55 162.51)"><tspan x="0" y="0">Н</tspan><tspan class="cls-5" x="26" y="0">а</tspan><tspan x="40.54" y="0">ч</tspan><tspan class="cls-1" x="58.64" y="0">а</tspan><tspan x="74.94" y="0">ло</tspan></text>
  </g>
  <g>
    <rect class="cls-2" x="100" y="300" width="200" height="100"/>
    <text class="cls-3" transform="translate(158.85 362.51)"><tspan x="0" y="0">S = []</tspan></text>
  </g>
  <g>
    <polygon class="cls-2" points="300 530 300 600 100 600 100 530 130 500 270 500 300 530"/>
    <text class="cls-4" transform="translate(166.34 543.94)"><tspan x="0" y="0">цикл 1</tspan><tspan x="-25.44" y="28.8">i = 0, ..., v-1</tspan></text>
  </g>
  <g>
    <rect class="cls-2" x="100" y="700" width="200" height="100"/>
    <text class="cls-3" transform="translate(164.84 762.51)"><tspan x="0" y="0">s = 0</tspan></text>
  </g>
  <g>
    <polygon class="cls-2" points="300 930 300 1000 100 1000 100 930 130 900 270 900 300 930"/>
    <text class="cls-4" transform="translate(166.34 943.94)"><tspan x="0" y="0">цикл 2</tspan><tspan x="-25.44" y="28.8">j = 0, ..., v-1</tspan></text>
  </g>
  <g>
    <rect class="cls-2" x="100" y="1100" width="200" height="100"/>
    <text class="cls-3" transform="translate(120.7 1162.51)"><tspan x="0" y="0">s +=</tspan><tspan class="cls-7" x="63.62" y="0"> </tspan><tspan x="70.63" y="0">A[i, j]</tspan></text>
  </g>
  <g>
    <polygon class="cls-2" points="100 1370 100 1300 300 1300 300 1370 270 1400 130 1400 100 1370"/>
    <text class="cls-4" transform="translate(166.34 1358.34)"><tspan x="0" y="0">цикл 2</tspan></text>
  </g>
  <g>
    <rect class="cls-2" x="100" y="1500" width="200" height="100"/>
    <text class="cls-3" transform="translate(141.69 1562.51)"><tspan x="0" y="0">S += [s]</tspan></text>
  </g>
  <g>
    <polygon class="cls-2" points="200 1800 100 1750 200 1700 300 1750 200 1800"/>
    <text class="cls-4" transform="translate(140.57 1758.34)"><tspan x="0" y="0">i mod 2 != 0</tspan></text>
  </g>
  <g>
    <path class="cls-2" d="m170,2000h110c19.46-20.43,20-44.88,20-50,0-28.21-16.47-46.29-20-50h-110c-13.96,5.55-32.03,14.7-50,30-7.94,6.76-14.55,13.6-20,20,5.45,6.4,12.06,13.24,20,20,17.97,15.3,36.04,24.45,50,30Z"/>
    <text class="cls-3" transform="translate(178.29 1962.51)"><tspan x="0" y="0">S[i]</tspan></text>
  </g>
  <text class="cls-4" transform="translate(216.49 1820)"><tspan x="0" y="0">Да</tspan></text>
  <text class="cls-4" transform="translate(50.76 1740)"><tspan x="0" y="0">Нет</tspan></text>
  <g>
    <polygon class="cls-2" points="100 2170 100 2100 300 2100 300 2170 270 2200 130 2200 100 2170"/>
    <text class="cls-4" transform="translate(166.34 2158.34)"><tspan x="0" y="0">цикл 1</tspan></text>
  </g>
  <g>
    <rect class="cls-2" x="100" y="2300" width="200" height="100" rx="46.91" ry="46.91"/>
    <text class="cls-3" transform="translate(152.64 2362.51)"><tspan class="cls-6" x="0" y="0">К</tspan><tspan x="22.22" y="0">онец</tspan></text>
  </g>
  <line class="cls-2" x1="200" y1="200" x2="200" y2="300"/>
  <line class="cls-2" x1="200" y1="400" x2="200" y2="500"/>
  <line class="cls-2" x1="200" y1="600" x2="200" y2="700"/>
  <line class="cls-2" x1="200" y1="800" x2="200" y2="900"/>
  <line class="cls-2" x1="200" y1="1000" x2="200" y2="1100"/>
  <line class="cls-2" x1="200" y1="1200" x2="200" y2="1300"/>
  <line class="cls-2" x1="200" y1="1400" x2="200" y2="1500"/>
  <line class="cls-2" x1="200" y1="1600" x2="200" y2="1700"/>
  <line class="cls-2" x1="200" y1="1800" x2="200" y2="1900"/>
  <line class="cls-2" x1="200" y1="2000" x2="200" y2="2100"/>
  <line class="cls-2" x1="200" y1="2200" x2="200" y2="2300"/>
  <polyline class="cls-2" points="100 1750 50 1750 50 1950 100 1950"/>
</svg>